<?xml version="1.0" standalone="yes"?>
<svg xmlns="http://www.w3.org/2000/svg" width="1024" height="1024">
<path style="fill:#eefee8; stroke:none;" d="M0 0L1 992L2 992L2 984L4 984L3 993L5 984L6 984L7 1024L1024 1024L1024 0L0 0z"/>
<path style="fill:#d0fd88; stroke:none;" d="M484 98L484 99L493 99L484 98z"/>
<path style="fill:#3cca6b; stroke:none;" d="M291 160L287 165L279 170L272 175L270 174L268 178L262 183C257.142 183.621 254.243 186.766 252 191C247.002 191.908 241.189 197.441 239 202L226.015 211.576L198.004 241.83L189 255C181.811 258.505 177.134 267.626 172.579 274C161.332 289.738 150.441 305.68 141.753 323C104.974 396.322 87.0676 478 97.7184 560C100.671 582.736 105.588 604.998 112.001 627C113.945 633.669 116.362 646.766 122 651C119.812 655.376 124.352 660.671 126 661L131.001 677L148.576 712L159 727C159.439 732.298 163.309 738.427 168 741C168.629 746.027 172.413 749.904 175.28 754C182.273 763.99 190.685 779.679 202 785L212.001 798.17L251 836L271 849L277 853C279.824 858.512 288.727 865.008 295 865C297.667 869.734 305.541 874.691 311 875L311 877L313 876L313 878L315 877L315 879L317 878L321 880L321 882L323 881L323 883L325 882L325 884L327 883L327 885L329 884L329 886L332 885L333 885C334.117 888.26 335.605 888.998 339 889L339 891L341 892L348 893C354.113 901.336 374.343 905.118 384 908.116C419.166 919.033 454.456 924.587 491 927.089C501.695 927.822 512.253 928 523 928C526.332 928 532.61 929.174 535.397 926.972C538.153 924.794 537.907 917.217 537.985 914C538.279 902.015 538 889.989 538 878C459.309 878.009 385.531 863.262 318 820.139C294.771 805.306 273.128 788.311 253.808 768.615C247.039 761.714 236.37 743.737 227 742L227 738L218 729C217.364 723.911 213.517 718.471 209 716L206 712L203 707C202.645 701.962 199.438 696.5 195 694C194.886 688.523 190.727 680.891 186 678C186.049 672.924 183.455 666.652 179 664C179.677 659.352 178.013 654.63 174 652C174.499 647.958 173.358 643.52 170 641C170.26 636.567 168.657 630.744 165 628C166.363 617.149 158.459 602.69 155.883 592C150.277 568.73 147.085 544.88 146.039 521C145.085 499.206 148.448 477.553 151.282 456C152.506 446.688 156.996 435.183 155 426C159.801 422.121 163.959 401.96 163 396C166.03 393.923 166.517 391.546 166 388L172 378L171 375C173.713 375 173.383 373.616 173 371L175 372L174 369L177 362L178 360L181 354L182 352L184 348L186 348L185 346L187 343L189 343L188 341L190 341L189 339L193 332L195 332L194 330L196 327L198 327L197 325L201 319C205.915 316.311 210.535 309.574 211 304C215.713 301.702 219.528 297.294 220 292L223 291L222 289C226.15 286.687 232.146 280.61 233 276L260.17 249.576L276 233C284.454 231.58 293.04 220.785 300 215.745C316.586 203.736 334.473 192.658 353 183.889C411.69 156.11 472.745 148 537 148L537 111C537 108.569 538.879 100.318 538 99C536.49 96.7348 528.615 98 526 98C514.449 98 501.869 97.1885 491 99C476.209 101.465 461.256 98.436 447 102C413.036 110.491 379.84 116.733 348 130C332.911 136.287 318.653 144.674 304 152C299.478 154.261 293.577 160.644 291 160z"/>
<path style="fill:#d0fd88; stroke:none;" d="M537 98L537 148C514.682 148 492.165 147.556 470 150.286C395.202 159.501 327.656 188.969 271 238.845C253.934 253.869 237.088 270.72 223.478 289C219.36 294.532 211.628 302.108 211 309C205.573 311.97 202.307 318.863 199.053 324C190.619 337.318 182.967 351.531 176.719 366C150.526 426.656 140.084 495.441 149.728 561C152.383 579.043 156.843 596.502 161.859 614C163.559 619.933 164.907 630.175 170 634C169.161 648.311 182.668 669.773 189.576 682C192.211 686.664 194.195 692.293 199 695C199.195 704.307 213.878 725.623 222 730C222.697 737.492 234.01 750.42 241 753C242.5 761.819 255.825 771.642 262.285 777.514C281.027 794.547 300.212 810.127 322 823.2C328.927 827.356 338.79 835.016 347 835C349.827 839.39 355.442 841.013 360 843.245C370.716 848.492 381.737 853.433 393 857.344C440.708 873.909 488.068 878.033 538 878L536 928C589.013 927.965 644.312 910.874 692 888.689C739.425 866.626 782.629 835.68 818.834 797.911C848.857 766.591 877.036 728.907 894.536 689C924.284 621.165 938.896 548.191 931.83 474C917.917 327.908 821.834 195.417 689 134.381C642.649 113.084 588.295 98 537 98M471 99L471 100L475 100L471 99M460 100L460 101L464 101L460 100M452 101L452 102L456 102L452 101M445.667 102.333L446.333 102.667L445.667 102.333M440.667 103.333L441.333 103.667L440.667 103.333M434.667 104.333L435.333 104.667L434.667 104.333M430 105L431 106L430 105M425.667 106.333L426.333 106.667L425.667 106.333M420.667 107.333L421.333 107.667L420.667 107.333M410.667 109.333L411.333 109.667L410.667 109.333M407 110L408 111L407 110M403 111L404 112L403 111M396.667 113.333L397.333 113.667L396.667 113.333M392.667 114.333L393.333 114.667L392.667 114.333M389 115L390 116L389 115M385.667 116.333L386.333 116.667L385.667 116.333M383 117L384 118L383 117M379.667 118.333L380.333 118.667L379.667 118.333M376.667 119.333L377.333 119.667L376.667 119.333M373 120L374 121L373 120M370.667 121.333L371.333 121.667L370.667 121.333M365 123L366 124L365 123M362 124L363 125L362 124M360 125L361 126L360 125M357 126L358 127L357 126M354.667 127.333L355.333 127.667L354.667 127.333M350 129L351 130L350 129M345 131L346 132L345 131M343 132L344 133L343 132M341 133L342 134L341 133M339 134L340 135L339 134M334 136L335 137L334 136M332 137L333 138L332 137M329 138L330 139L329 138M326 140L327 141L326 140M324 141L325 142L324 141M321 142L322 143L321 142M317 144L318 145L317 144M316 145L317 146L316 145M314 146L315 147L314 146M312.667 147.333L313.333 147.667L312.667 147.333M311 148L312 149L311 148M309 149L310 150L309 149M306 151L307 152L306 151M302 153L303 154L302 153M300 154L301 155L300 154M295 157L296 158L295 157z"/>
<path style="fill:#037d5d; stroke:none;" d="M296 157L297 158L296 157z"/>
<path style="fill:#d0fd88; stroke:none;" d="M292 159L293 160L292 159z"/>
<path style="fill:#eefee8; stroke:none;" d="M448 159L449 160L448 159z"/>
<path style="fill:#037d5d; stroke:none;" d="M292 160L293 161L292 160z"/>
<path style="fill:#d0fd88; stroke:none;" d="M289 161L290 162L289 161z"/>
<path style="fill:#037d5d; stroke:none;" d="M290.667 161.333L291.333 161.667L290.667 161.333z"/>
<path style="fill:#d0fd88; stroke:none;" d="M286 163L287 164L286 163z"/>
<path style="fill:#037d5d; stroke:none;" d="M288 163L289 164L288 163M286 164L287 165L286 164z"/>
<path style="fill:#d0fd88; stroke:none;" d="M283 165L284 166L283 165z"/>
<path style="fill:#037d5d; stroke:none;" d="M285 165L286 166L285 165M282 167L283 168L282 167z"/>
<path style="fill:#d0fd88; stroke:none;" d="M278 168L279 169L278 168z"/>
<path style="fill:#037d5d; stroke:none;" d="M278 169L279 170L278 169z"/>
<path style="fill:#d0fd88; stroke:none;" d="M275 170L276 171L275 170z"/>
<path style="fill:#037d5d; stroke:none;" d="M277 170L278 171L277 170M274 172L275 173L274 172z"/>
<path style="fill:#d0fd88; stroke:none;" d="M271 173L272 174L271 173z"/>
<path style="fill:#037d5d; stroke:none;" d="M272 173L273 174L272 173M271 174L272 175L271 174z"/>
<path style="fill:#eefee8; stroke:none;" d="M382.667 174.333L383.333 174.667L382.667 174.333z"/>
<path style="fill:#d0fd88; stroke:none;" d="M268 175L267 177L268 175z"/>
<path style="fill:#037d5d; stroke:none;" d="M270 175L271 176L270 175M268 176L269 177L268 176M267 177L268 178L267 177M266 178L267 179L266 178M264 180L266 182L264 180z"/>
<path style="fill:#d0fd88; stroke:none;" d="M261 181L262 182L261 181z"/>
<path style="fill:#037d5d; stroke:none;" d="M262 181L263 182L262 181M261 182L262 183L261 182M260 183L261 184L260 183z"/>
<path style="fill:#d0fd88; stroke:none;" d="M257 184L258 185L257 184z"/>
<path style="fill:#037d5d; stroke:none;" d="M255 187L256 188L255 187z"/>
<path style="fill:#d0fd88; stroke:none;" d="M252 188L251 190L252 188M249 189L250 190L249 189z"/>
<path style="fill:#037d5d; stroke:none;" d="M252 189L253 190L252 189M251 190L252 191L251 190M250 191L251 192L250 191z"/>
<path style="fill:#d0fd88; stroke:none;" d="M247 192L244 196L247 192z"/>
<path style="fill:#037d5d; stroke:none;" d="M247 193L248 194L247 193M246 194L247 195L246 194M245 195L246 196L245 195z"/>
<path style="fill:#d0fd88; stroke:none;" d="M242 196L243 197L242 196z"/>
<path style="fill:#037d5d; stroke:none;" d="M243 197L244 198L243 197z"/>
<path style="fill:#d0fd88; stroke:none;" d="M240 198L241 199L240 198M239 199L240 200L239 199M238 200L239 201L238 200z"/>
<path style="fill:#037d5d; stroke:none;" d="M238 201L239 202L238 201z"/>
<path style="fill:#d0fd88; stroke:none;" d="M233 204L234 205L233 204M232 205L233 206L232 205M231 206L232 207L231 206M230 207L231 208L230 207M229 208L230 209L229 208M228 209L229 210L228 209M227 210L228 211L227 210M226 211L227 212L226 211M222 214L223 215L222 214M220 217L221 218L220 217M219 218L220 219L219 218M218 219L219 220L218 219M216 221L217 222L216 221M215 222L216 223L215 222M214 223L215 224L214 223M213 224L214 225L213 224M212 225L213 226L212 225z"/>
<path style="fill:#037d5d; stroke:none;" d="M211 227L212 228L211 227M209 230L210 231L209 230z"/>
<path style="fill:#d0fd88; stroke:none;" d="M206 231L207 232L206 231M205 233L206 234L205 233z"/>
<path style="fill:#037d5d; stroke:none;" d="M276 233L277 234L276 233z"/>
<path style="fill:#d0fd88; stroke:none;" d="M204 234L205 235L204 234M203 235L204 236L203 235M202 236L203 237L202 236M201 237L202 238L201 237M195 241L196 242L195 241M197 242L196 244L197 242z"/>
<path style="fill:#037d5d; stroke:none;" d="M197 243L198 244L197 243z"/>
<path style="fill:#eefee8; stroke:none;" d="M270 246L271 247L270 246z"/>
<path style="fill:#d0fd88; stroke:none;" d="M192 248L193 249L192 248z"/>
<path style="fill:#eefee8; stroke:none;" d="M262 248L263 249L262 248z"/>
<path style="fill:#d0fd88; stroke:none;" d="M189 249L190 250L189 249M191 249L192 250L191 249z"/>
<path style="fill:#eefee8; stroke:none;" d="M504 249L505 250L504 249z"/>
<path style="fill:#d0fd88; stroke:none;" d="M190 250L191 251L190 250z"/>
<path style="fill:#037d5d; stroke:none;" d="M258 250L259 251L258 250z"/>
<path style="fill:#eefee8; stroke:none;" d="M511 252L512 253L511 252z"/>
<path style="fill:#037d5d; stroke:none;" d="M189 253L190 254L189 253z"/>
<path style="fill:#eefee8; stroke:none;" d="M258 253L259 254L258 253M261 253L263 255L261 253M447 254L447 255L496 256C493.26 251.773 487.571 253 483 253C471.165 253 458.665 251.834 447 254z"/>
<path style="fill:#d0fd88; stroke:none;" d="M187 254L188 255L187 254z"/>
<path style="fill:#037d5d; stroke:none;" d="M188 254L189 255L188 254z"/>
<path style="fill:#eefee8; stroke:none;" d="M504.667 254.333L505.333 254.667L504.667 254.333M508 254L508 255L511 255L508 254z"/>
<path style="fill:#d0fd88; stroke:none;" d="M186 255L187 256L186 255z"/>
<path style="fill:#eefee8; stroke:none;" d="M424 255L424 256L428 256L424 255z"/>
<path style="fill:#d0fd88; stroke:none;" d="M451 255L452 256L451 255M453 255L454 256L453 255M456 255L456 256L472 256L456 255M185 256L186 257L185 256z"/>
<path style="fill:#eefee8; stroke:none;" d="M254 256L255 257L254 256M414 256L414 260L414 256M419 256L420 257L419 256z"/>
<path style="fill:#3cca6b; stroke:none;" d="M422 256L422 257L426 257L422 256z"/>
<path style="fill:#037d5d; stroke:none;" d="M415 259L411 262L409 264L405 269L406 271C398.809 276.469 402 294.894 402 303L402 394C368.911 394.683 334.904 392.996 302 395.089C293.708 395.616 273.114 390.703 271 403L270 403C266.693 400.251 261.646 406.385 259.598 409.015C252.905 417.606 250.017 427.226 250 438C249.944 472.716 250 507.292 250 542C250 555.851 254.436 572.869 251 586L252 586L252 584L253 584L252 588L256 585L256 596L258 597L259 597L260 595L261 598L258 598L258 599L263 598L266 607C268.649 606.47 269.607 606.572 269 609C273.553 607.482 282.26 613.961 282 615L313 612L312 614L318 612L319 612C324.113 615.873 333.782 614 340 614C358.494 614 383.322 618.079 401 613L402 619L404 618L404 701L403 701L403 693L402 693L402 752L403 752L403 724L404 724L403 756L405 755L404 758L408 764L411 762L414 765L414 770L421 769L421 770L419 770L419 771L423 770L423 774L446 773L446 772L424 772L424 771L472 769L472 770L464 770L464 771L500 769L500 770L493 770L493 771L504 771L504 772L475 772L475 773L609 774L609 773L507 773L506 700L534 700L534 699L507 699L508 697L505 698L505 695L496 692L494 688L494 687L496 685L494 687L490 684L492 681L489 680C494.948 665.962 492 646.967 492 632L492 533L491 533L490 535L490 533L489 533L489 535L481 536L462 534.87L416 536L416 535L418 535L418 534L383 535L371 524C367.716 524 367.78 520.783 368 518C363.653 516.987 363.961 511.826 363.648 508C363.031 500.458 362.107 478.775 373 478L376 476L375 474L378 475L393 474L428 474L428 473L425 473L425 472L494 472L494 405L493 405L493 408L492 408L492 347L493 347L493 349L494 349C492.687 339.581 499.737 336.957 504 330L506 331L507 330C502.649 306.561 506 279.834 506 256L428.91 256.14L415 259z"/>
<path style="fill:#0a6039; stroke:none;" d="M432 256L433 257L432 256z"/>
<path style="fill:#3cca6b; stroke:none;" d="M506 256C506 279.189 501.631 307.451 507 330C522.648 325.04 544.218 326.765 550.298 345C554.062 356.29 551 373.121 551 385L551 473C579.482 473 608.742 470.141 637 472.83C645.298 473.62 656.799 470.449 663.999 475.514C678.915 486.007 678.542 523.575 660 530.441C648.585 534.667 631.935 532.562 620 532.039C596.762 531.022 573.262 532 550 532L551 684L548 689L547 690L545 689L539 697L512 698L512 699L534 699L534 700L506 700L507 773L591 773C595.707 773 616.22 775.935 617 771L620 772L619 770L620 770C625.696 770.329 630.747 765.69 631 760L634 759L633 756L635 757L634 754L637.412 746L638 722L638 616C673.631 616 709.381 616.86 745 615.985C754.91 615.742 775.036 610.449 777 599C789.433 592.175 786 566.908 786 555L786 454C786 438.521 788.841 421.538 777.815 409.001C763.767 393.026 746.429 394 727 394L673 394C665.115 394 646.942 397.393 640.318 392.972C634.541 389.117 638.221 370.162 637.961 364C637.148 344.732 638 325.391 638 306C638 296.138 638.834 284.3 635.069 275C628.372 258.455 612.593 256 597 256L506 256z"/>
<path style="fill:#eefee8; stroke:none;" d="M417 257L418 258L417 257z"/>
<path style="fill:#3cca6b; stroke:none;" d="M419 257L420 258L419 257z"/>
<path style="fill:#0a6039; stroke:none;" d="M420.667 257.333L421.333 257.667L420.667 257.333z"/>
<path style="fill:#eefee8; stroke:none;" d="M623 257L624 258L623 257z"/>
<path style="fill:#037d5d; stroke:none;" d="M190 258L191 259L190 258z"/>
<path style="fill:#eefee8; stroke:none;" d="M253 258L255 260L253 258M408.333 258.667L408.667 259.333L408.333 258.667z"/>
<path style="fill:#d0fd88; stroke:none;" d="M414 258L415 259L414 258z"/>
<path style="fill:#3cca6b; stroke:none;" d="M417 258L418 259L417 258z"/>
<path style="fill:#0a6039; stroke:none;" d="M418.667 258.333L419.333 258.667L418.667 258.333z"/>
<path style="fill:#d0fd88; stroke:none;" d="M183 259L184 260L183 259z"/>
<path style="fill:#eefee8; stroke:none;" d="M411 259L410 260L410 261L411 262L412 262L413 261L413 260L411 259z"/>
<path style="fill:#0a6039; stroke:none;" d="M416 259L417 260L416 259z"/>
<path style="fill:#d0fd88; stroke:none;" d="M182 260L183 261L182 260M411 260L412 261L411 260z"/>
<path style="fill:#0a6039; stroke:none;" d="M414 260L415 261L414 260z"/>
<path style="fill:#3cca6b; stroke:none;" d="M412 261L413 262L412 261z"/>
<path style="fill:#0a6039; stroke:none;" d="M413 261L414 262L413 261z"/>
<path style="fill:#eefee8; stroke:none;" d="M409.667 262.333L410.333 262.667L409.667 262.333z"/>
<path style="fill:#0a6039; stroke:none;" d="M412 262L413 263L412 262z"/>
<path style="fill:#d0fd88; stroke:none;" d="M180 263L181 264L180 263z"/>
<path style="fill:#3cca6b; stroke:none;" d="M410 263L411 264L410 263z"/>
<path style="fill:#0a6039; stroke:none;" d="M411 263L412 264L411 263z"/>
<path style="fill:#eefee8; stroke:none;" d="M404.333 264.667L404.667 265.333L404.333 264.667M408 264L409 265L408 264z"/>
<path style="fill:#0a6039; stroke:none;" d="M410 264L411 265L410 264z"/>
<path style="fill:#eefee8; stroke:none;" d="M631 264L632 265L631 264M406 265L402 274L403 274L406 265z"/>
<path style="fill:#3cca6b; stroke:none;" d="M408 265L409 266L408 265M407 266L406 268L407 266z"/>
<path style="fill:#d0fd88; stroke:none;" d="M177 267L178 268L177 267z"/>
<path style="fill:#0a6039; stroke:none;" d="M407 267L408 268L407 267z"/>
<path style="fill:#d0fd88; stroke:none;" d="M176 268L177 269L176 268M405 268L406 269L405 268z"/>
<path style="fill:#eefee8; stroke:none;" d="M246 270L247 271L246 270M401.333 270.667L401.667 271.333L401.333 270.667z"/>
<path style="fill:#3cca6b; stroke:none;" d="M404 270L405 271L404 270z"/>
<path style="fill:#0a6039; stroke:none;" d="M405 270L406 271L405 270z"/>
<path style="fill:#d0fd88; stroke:none;" d="M174 271L175 272L174 271M173 272L174 273L173 272z"/>
<path style="fill:#037d5d; stroke:none;" d="M236 272L237 273L236 272z"/>
<path style="fill:#eefee8; stroke:none;" d="M400 272L401 273L400 272z"/>
<path style="fill:#d0fd88; stroke:none;" d="M403 272L404 273L403 272z"/>
<path style="fill:#eefee8; stroke:none;" d="M637.333 272.667L637.667 273.333L637.333 272.667z"/>
<path style="fill:#3cca6b; stroke:none;" d="M403 273L404 274L403 273z"/>
<path style="fill:#d0fd88; stroke:none;" d="M172 274L173 275L172 274z"/>
<path style="fill:#037d5d; stroke:none;" d="M235 274L236 275L235 274z"/>
<path style="fill:#d0fd88; stroke:none;" d="M171 275L172 276L171 275z"/>
<path style="fill:#eefee8; stroke:none;" d="M401 275L400 391L294 390.004L272 394L271 397L271 398C301.651 389.634 336.249 394 368 394C375.462 394 395.31 389.753 401 394L402 394L402 311L401 275z"/>
<path style="fill:#037d5d; stroke:none;" d="M233 276L234 277L233 276z"/>
<path style="fill:#3cca6b; stroke:none;" d="M402 276L402 279L403 279L402 276z"/>
<path style="fill:#d0fd88; stroke:none;" d="M169 278L170 279L169 278z"/>
<path style="fill:#eefee8; stroke:none;" d="M639 279L640 280L639 279z"/>
<path style="fill:#037d5d; stroke:none;" d="M230 280L231 281L230 280z"/>
<path style="fill:#d0fd88; stroke:none;" d="M167 281L168 282L167 281z"/>
<path style="fill:#037d5d; stroke:none;" d="M229 281L230 282L229 281M228 282L229 283L228 282M227 283L228 284L227 283z"/>
<path style="fill:#d0fd88; stroke:none;" d="M165 284L166 285L165 284z"/>
<path style="fill:#037d5d; stroke:none;" d="M226 284L227 285L226 284z"/>
<path style="fill:#d0fd88; stroke:none;" d="M162 286L163 287L162 286z"/>
<path style="fill:#eefee8; stroke:none;" d="M639.333 286.667L639.667 287.333L639.333 286.667z"/>
<path style="fill:#d0fd88; stroke:none;" d="M162 288L163 289L162 288z"/>
<path style="fill:#037d5d; stroke:none;" d="M223 288L224 289L223 288z"/>
<path style="fill:#d0fd88; stroke:none;" d="M161 289L162 290L161 289z"/>
<path style="fill:#037d5d; stroke:none;" d="M222 289L223 290L222 289M221 290L222 291L221 290z"/>
<path style="fill:#d0fd88; stroke:none;" d="M159 292L160 293L159 292z"/>
<path style="fill:#037d5d; stroke:none;" d="M220 292L221 293L220 292z"/>
<path style="fill:#d0fd88; stroke:none;" d="M158 294L159 295L158 294M157 295L158 296L157 295z"/>
<path style="fill:#037d5d; stroke:none;" d="M217 295L218 296L217 295z"/>
<path style="fill:#eefee8; stroke:none;" d="M222 296L223 297L222 296z"/>
<path style="fill:#d0fd88; stroke:none;" d="M155 298L156 299L155 298M154 300L155 301L154 300z"/>
<path style="fill:#eefee8; stroke:none;" d="M219 301L220 302L219 301z"/>
<path style="fill:#d0fd88; stroke:none;" d="M153 302L154 303L153 302z"/>
<path style="fill:#037d5d; stroke:none;" d="M153 303L154 304L153 303M211 304L212 305L211 304z"/>
<path style="fill:#d0fd88; stroke:none;" d="M151 305L152 306L151 305z"/>
<path style="fill:#037d5d; stroke:none;" d="M210 305L209 307L210 305M208 308L209 309L208 308z"/>
<path style="fill:#eefee8; stroke:none;" d="M210 308L211 309L210 308z"/>
<path style="fill:#d0fd88; stroke:none;" d="M148 310L149 311L148 310z"/>
<path style="fill:#eefee8; stroke:none;" d="M210 311L211 312L210 311z"/>
<path style="fill:#d0fd88; stroke:none;" d="M147.333 312.667L147.667 313.333L147.333 312.667M146 314L147 315L146 314M144 317L145 318L144 317z"/>
<path style="fill:#037d5d; stroke:none;" d="M201 319L202 320L201 319M200 320L201 321L200 320z"/>
<path style="fill:#d0fd88; stroke:none;" d="M142 321L143 322L142 321M141 323L142 324L141 323z"/>
<path style="fill:#037d5d; stroke:none;" d="M198 323L199 324L198 323z"/>
<path style="fill:#d0fd88; stroke:none;" d="M140 325L141 326L140 325z"/>
<path style="fill:#037d5d; stroke:none;" d="M197 325L198 326L197 325z"/>
<path style="fill:#d0fd88; stroke:none;" d="M139 327L140 328L139 327z"/>
<path style="fill:#037d5d; stroke:none;" d="M196 327L197 328L196 327M195 328L196 329L195 328z"/>
<path style="fill:#d0fd88; stroke:none;" d="M511 328L511 329L516 329L511 328z"/>
<path style="fill:#eefee8; stroke:none;" d="M494 474L407 474C395.743 474 380.22 471.166 371.105 479.34C358.035 491.061 364.012 523.593 380 530.143C392.43 535.235 409.996 531.395 423 531.042C446.453 530.408 470.569 533.478 494 531L494 634C494 648.881 490.834 667.855 494.535 682.286C498.586 698.083 523.985 702.819 537 696.312C555.101 687.261 548.834 669.992 550.166 654C553.514 613.797 550 572.321 550 532L624 532C635.548 532 650.051 534.316 660.996 530.045C676.985 523.806 678.89 486.124 665.535 476.483C656.614 470.043 643.055 473.996 633 474L551 474L551 388C551 374.891 553.546 358.755 550.467 346C545.693 326.226 514.986 321.769 501.185 334.379C490.714 343.947 494 361.291 494 374L494 474z"/>
<path style="fill:#d0fd88; stroke:none;" d="M528 328L529 329L528 328M533.667 328.333L534.333 328.667L533.667 328.333M138 329L139 330L138 329z"/>
<path style="fill:#3cca6b; stroke:none;" d="M503 329L504 330L503 329z"/>
<path style="fill:#d0fd88; stroke:none;" d="M508 329L509 330L508 329M536 329L537 330L536 329z"/>
<path style="fill:#037d5d; stroke:none;" d="M194 330L195 331L194 330z"/>
<path style="fill:#eefee8; stroke:none;" d="M198 330L197 332L198 330z"/>
<path style="fill:#3cca6b; stroke:none;" d="M500 330L501 331L500 330z"/>
<path style="fill:#0a6039; stroke:none;" d="M504 330L505 331L504 330z"/>
<path style="fill:#d0fd88; stroke:none;" d="M506 330L507 331L506 330M538 330L539 331L538 330M137 331L138 332L137 331z"/>
<path style="fill:#0a6039; stroke:none;" d="M498 331L499 332L498 331z"/>
<path style="fill:#3cca6b; stroke:none;" d="M504 331L505 332L504 331z"/>
<path style="fill:#d0fd88; stroke:none;" d="M505 331L506 332L505 331M539 331L540 332L539 331z"/>
<path style="fill:#037d5d; stroke:none;" d="M193 332L194 333L193 332z"/>
<path style="fill:#0a6039; stroke:none;" d="M502 332L503 333L502 332z"/>
<path style="fill:#d0fd88; stroke:none;" d="M503 332L504 333L503 332M538 332L539 333L538 332M136 333L137 334L136 333z"/>
<path style="fill:#037d5d; stroke:none;" d="M192 333L193 334L192 333z"/>
<path style="fill:#eefee8; stroke:none;" d="M196 333L195 335L196 333z"/>
<path style="fill:#0a6039; stroke:none;" d="M500 333L500 335L502 333L500 333z"/>
<path style="fill:#d0fd88; stroke:none;" d="M542 333L543 334L542 333M543 334L544 335L543 334M135 335L136 336L135 335z"/>
<path style="fill:#0a6039; stroke:none;" d="M498 335L493 347L494 347L500 335L498 335z"/>
<path style="fill:#d0fd88; stroke:none;" d="M544 335L545 336L544 335M545 336L546 337L545 336M134 337L135 338L134 337M498 337L499 338L498 337z"/>
<path style="fill:#3cca6b; stroke:none;" d="M497 338L498 339L497 338z"/>
<path style="fill:#d0fd88; stroke:none;" d="M546 338L547 339L546 338M133 339L134 340L133 339z"/>
<path style="fill:#037d5d; stroke:none;" d="M189 339L190 340L189 339z"/>
<path style="fill:#d0fd88; stroke:none;" d="M498 339L499 340L498 339M547 339L548 340L547 339M496 340L497 341L496 340M132 341L133 342L132 341z"/>
<path style="fill:#037d5d; stroke:none;" d="M188 341L189 342L188 341z"/>
<path style="fill:#3cca6b; stroke:none;" d="M495 341L496 342L495 341z"/>
<path style="fill:#eefee8; stroke:none;" d="M191 342L192 343L191 342z"/>
<path style="fill:#d0fd88; stroke:none;" d="M495 342L496 343L495 342M549 342L550 343L549 342z"/>
<path style="fill:#037d5d; stroke:none;" d="M187 343L188 344L187 343z"/>
<path style="fill:#eefee8; stroke:none;" d="M190 344L191 345L190 344z"/>
<path style="fill:#3cca6b; stroke:none;" d="M494 344L495 345L494 344z"/>
<path style="fill:#d0fd88; stroke:none;" d="M550.333 344.667L550.667 345.333L550.333 344.667M130 345L131 346L130 345M494 345L495 346L494 345z"/>
<path style="fill:#037d5d; stroke:none;" d="M185 346L186 347L185 346z"/>
<path style="fill:#0a6039; stroke:none;" d="M492 347L492 360L493 360L492 347z"/>
<path style="fill:#d0fd88; stroke:none;" d="M129 348L130 349L129 348z"/>
<path style="fill:#037d5d; stroke:none;" d="M184 348L185 349L184 348z"/>
<path style="fill:#3cca6b; stroke:none;" d="M493 349L493 360L494 360L493 349z"/>
<path style="fill:#d0fd88; stroke:none;" d="M128 350L129 351L128 350z"/>
<path style="fill:#eefee8; stroke:none;" d="M186 350L187 351L186 350M188 350L189 351L188 350z"/>
<path style="fill:#d0fd88; stroke:none;" d="M127 352L128 353L127 352z"/>
<path style="fill:#037d5d; stroke:none;" d="M182 352L183 353L182 352z"/>
<path style="fill:#d0fd88; stroke:none;" d="M126 354L127 355L126 354z"/>
<path style="fill:#037d5d; stroke:none;" d="M181 354L182 355L181 354z"/>
<path style="fill:#d0fd88; stroke:none;" d="M125 356L126 357L125 356M124 359L125 360L124 359z"/>
<path style="fill:#037d5d; stroke:none;" d="M178 360L179 361L178 360z"/>
<path style="fill:#d0fd88; stroke:none;" d="M123 361L124 362L123 361z"/>
<path style="fill:#037d5d; stroke:none;" d="M177 362L178 363L177 362z"/>
<path style="fill:#d0fd88; stroke:none;" d="M122 364L123 365L122 364z"/>
<path style="fill:#037d5d; stroke:none;" d="M176 364L177 365L176 364z"/>
<path style="fill:#d0fd88; stroke:none;" d="M121 367L122 368L121 367z"/>
<path style="fill:#0a6039; stroke:none;" d="M492 368L492 408L493 408C493 396.566 496.411 378.512 492 368z"/>
<path style="fill:#3cca6b; stroke:none;" d="M493 368L493 405L494 405C494 394.351 497.111 377.798 493 368z"/>
<path style="fill:#d0fd88; stroke:none;" d="M120 369L121 370L120 369z"/>
<path style="fill:#037d5d; stroke:none;" d="M174 369L175 370L174 369z"/>
<path style="fill:#d0fd88; stroke:none;" d="M119.333 371.667L119.667 372.333L119.333 371.667z"/>
<path style="fill:#037d5d; stroke:none;" d="M173.333 371.667L173.667 372.333L173.333 371.667M172 373L173 374L172 373z"/>
<path style="fill:#d0fd88; stroke:none;" d="M118 374L119 375L118 374z"/>
<path style="fill:#037d5d; stroke:none;" d="M171.333 375.667L171.667 376.333L171.333 375.667z"/>
<path style="fill:#d0fd88; stroke:none;" d="M117.333 377.667L117.667 378.333L117.333 377.667z"/>
<path style="fill:#037d5d; stroke:none;" d="M170 378L171 379L170 378z"/>
<path style="fill:#d0fd88; stroke:none;" d="M116.333 379.667L116.667 380.333L116.333 379.667z"/>
<path style="fill:#eefee8; stroke:none;" d="M285 384L286 386L287 386L288 384L285 384M352 384L352 385L360 385L352 384z"/>
<path style="fill:#d0fd88; stroke:none;" d="M114 386L115 387L114 386z"/>
<path style="fill:#037d5d; stroke:none;" d="M166 388L167 389L166 388z"/>
<path style="fill:#d0fd88; stroke:none;" d="M113 389L114 390L113 389z"/>
<path style="fill:#eefee8; stroke:none;" d="M706 389L707 390L706 389M708 389L709 390L708 389M710 389L711 390L710 389M712 389L713 390L712 389M714 389L715 390L714 389M716 389L717 390L716 389M718 389L719 390L718 389M720 389L720 390L735 390L720 389M680 390L680 392L687 392L687 390L680 390z"/>
<path style="fill:#d0fd88; stroke:none;" d="M112 392L113 393L112 392z"/>
<path style="fill:#eefee8; stroke:none;" d="M265.667 392.333L266.333 392.667L265.667 392.333M279 392L280 393L279 392z"/>
<path style="fill:#d0fd88; stroke:none;" d="M400 392L388 393L388 394L400 392z"/>
<path style="fill:#eefee8; stroke:none;" d="M656 392L656 393L672 393L656 392M688 392L688 393L735 393C722.824 387.89 701.265 392 688 392z"/>
<path style="fill:#d0fd88; stroke:none;" d="M320 393L320 394L328 394L320 393z"/>
<path style="fill:#eefee8; stroke:none;" d="M759.667 393.333L760.333 393.667L759.667 393.333z"/>
<path style="fill:#d0fd88; stroke:none;" d="M281.667 394.333L282.333 394.667L281.667 394.333z"/>
<path style="fill:#3cca6b; stroke:none;" d="M283.667 394.333L284.333 394.667L283.667 394.333z"/>
<path style="fill:#0a6039; stroke:none;" d="M290 394L290 395C324.36 399.319 361.239 395 396 395L364 394L290 394z"/>
<path style="fill:#eefee8; stroke:none;" d="M762 394L763 395L762 394z"/>
<path style="fill:#d0fd88; stroke:none;" d="M111.333 395.667L111.667 396.333L111.333 395.667M274 395L275 396L274 395M278 395L279 396L278 395z"/>
<path style="fill:#3cca6b; stroke:none;" d="M279 395L280 396L279 395z"/>
<path style="fill:#037d5d; stroke:none;" d="M163 396L164 397L163 396z"/>
<path style="fill:#eefee8; stroke:none;" d="M165 396L166 397L165 396z"/>
<path style="fill:#d0fd88; stroke:none;" d="M275 396L276 397L275 396z"/>
<path style="fill:#3cca6b; stroke:none;" d="M276 396L277 397L276 396z"/>
<path style="fill:#0a6039; stroke:none;" d="M278 396L279 397L278 396z"/>
<path style="fill:#d0fd88; stroke:none;" d="M273 397L274 398L273 397z"/>
<path style="fill:#3cca6b; stroke:none;" d="M274 397L275 398L274 397z"/>
<path style="fill:#eefee8; stroke:none;" d="M767 397L768 398L767 397z"/>
<path style="fill:#d0fd88; stroke:none;" d="M110.333 398.667L110.667 399.333L110.333 398.667z"/>
<path style="fill:#3cca6b; stroke:none;" d="M272 398L273 399L272 398M270 399L270 402L271 402L270 399z"/>
<path style="fill:#eefee8; stroke:none;" d="M264 400L265 401L264 400M267 400L265 403L267 400z"/>
<path style="fill:#0a6039; stroke:none;" d="M270 400L271 401L270 400z"/>
<path style="fill:#eefee8; stroke:none;" d="M781 400L784 402L781 400M257 401L256 403L257 401M263 401L264 402L263 401z"/>
<path style="fill:#d0fd88; stroke:none;" d="M267 401L268 402L267 401M109 402L110 403L109 402z"/>
<path style="fill:#eefee8; stroke:none;" d="M259 402L258 404L259 402M262 402L262 405L261 406L254 415L255 415C257.421 411.35 264.141 406.402 262 402z"/>
<path style="fill:#3cca6b; stroke:none;" d="M266 402L267 403L266 402z"/>
<path style="fill:#0a6039; stroke:none;" d="M270 402L271 403L270 402z"/>
<path style="fill:#d0fd88; stroke:none;" d="M262 403L263 404L262 403z"/>
<path style="fill:#3cca6b; stroke:none;" d="M265 403L266 404L265 403z"/>
<path style="fill:#d0fd88; stroke:none;" d="M263 404L264 405L263 404z"/>
<path style="fill:#0a6039; stroke:none;" d="M264 405L265 406L264 405z"/>
<path style="fill:#d0fd88; stroke:none;" d="M108 406L109 407L108 406M259 406L258 408L259 406M260 407L261 408L260 407z"/>
<path style="fill:#eefee8; stroke:none;" d="M166 408L167 409L166 408M256 408L257 409L256 408z"/>
<path style="fill:#d0fd88; stroke:none;" d="M259 408L260 409L259 408z"/>
<path style="fill:#eefee8; stroke:none;" d="M780 409L780 410L783 410L783 409L780 409z"/>
<path style="fill:#d0fd88; stroke:none;" d="M107 410L108 411L107 410z"/>
<path style="fill:#3cca6b; stroke:none;" d="M258 410L259 411L258 410z"/>
<path style="fill:#037d5d; stroke:none;" d="M159 411L160 412L159 411z"/>
<path style="fill:#d0fd88; stroke:none;" d="M257 411L255 414L257 411z"/>
<path style="fill:#3cca6b; stroke:none;" d="M262 411L263 412L262 411z"/>
<path style="fill:#eefee8; stroke:none;" d="M783 411L784 412L783 411z"/>
<path style="fill:#0a6039; stroke:none;" d="M257 412L258 413L257 412z"/>
<path style="fill:#3cca6b; stroke:none;" d="M256 413L257 414L256 413z"/>
<path style="fill:#d0fd88; stroke:none;" d="M106 414L107 415L106 414z"/>
<path style="fill:#3cca6b; stroke:none;" d="M255 414L256 415L255 414M257 414L258 415L257 414z"/>
<path style="fill:#0a6039; stroke:none;" d="M258 414L259 415L258 414z"/>
<path style="fill:#037d5d; stroke:none;" d="M158 415L159 416L158 415z"/>
<path style="fill:#eefee8; stroke:none;" d="M250 416L251 423L252 423L254 416L250 416z"/>
<path style="fill:#d0fd88; stroke:none;" d="M251 416L252 417L251 416z"/>
<path style="fill:#3cca6b; stroke:none;" d="M254 416L255 417L254 416z"/>
<path style="fill:#eefee8; stroke:none;" d="M787.333 416.667L787.667 417.333L787.333 416.667z"/>
<path style="fill:#d0fd88; stroke:none;" d="M253.333 417.667L253.667 418.333L253.333 417.667M105 418L106 419L105 418z"/>
<path style="fill:#eefee8; stroke:none;" d="M249.333 418.667L249.667 419.333L249.333 418.667z"/>
<path style="fill:#3cca6b; stroke:none;" d="M253 419L254 420L253 419z"/>
<path style="fill:#d0fd88; stroke:none;" d="M252 420L253 421L252 420z"/>
<path style="fill:#eefee8; stroke:none;" d="M788 420L788 423L789 423L788 420z"/>
<path style="fill:#3cca6b; stroke:none;" d="M252 421L253 422L252 421z"/>
<path style="fill:#d0fd88; stroke:none;" d="M104.333 422.667L104.667 423.333L104.333 422.667z"/>
<path style="fill:#eefee8; stroke:none;" d="M250.333 424.667L250.667 425.333L250.333 424.667z"/>
<path style="fill:#037d5d; stroke:none;" d="M155.333 426.667L155.667 427.333L155.333 426.667z"/>
<path style="fill:#d0fd88; stroke:none;" d="M103.333 427.667L103.667 428.333L103.333 427.667z"/>
<path style="fill:#eefee8; stroke:none;" d="M249 427L249 433L250 433L249 427z"/>
<path style="fill:#3cca6b; stroke:none;" d="M250 427L250 430L251 430L250 427z"/>
<path style="fill:#eefee8; stroke:none;" d="M789 430L790 431L789 430z"/>
<path style="fill:#d0fd88; stroke:none;" d="M102.333 431.667L102.667 432.333L102.333 431.667M101.333 437.667L101.667 438.333L101.333 437.667z"/>
<path style="fill:#0a6039; stroke:none;" d="M492 440L492 448L493 448L492 440z"/>
<path style="fill:#3cca6b; stroke:none;" d="M493 440L493 448L494 448L493 440z"/>
<path style="fill:#d0fd88; stroke:none;" d="M100 442L100 445L101 445L100 442M99 449L99 452L100 452L99 449M98 456L98 459L99 459L98 456M97 465L97 468L98 468L97 465z"/>
<path style="fill:#eefee8; stroke:none;" d="M249 472L249 480L250 480L249 472z"/>
<path style="fill:#0a6039; stroke:none;" d="M383 472L384 473L383 472M425 472L425 473L493 473L471 472L425 472z"/>
<path style="fill:#3cca6b; stroke:none;" d="M493 472L494 473L493 472z"/>
<path style="fill:#037d5d; stroke:none;" d="M568 472L568 473L592 473L568 472M608 472L608 473L616 473L608 472M622 472L622 473L635 473L622 472z"/>
<path style="fill:#0a6039; stroke:none;" d="M369 473L370 474L369 473M378 473L378 474L382 474L378 473z"/>
<path style="fill:#3cca6b; stroke:none;" d="M428 473L428 474L488 474L469 473L428 473z"/>
<path style="fill:#d0fd88; stroke:none;" d="M488 473L489 474L488 473z"/>
<path style="fill:#3cca6b; stroke:none;" d="M489 473L490 474L489 473z"/>
<path style="fill:#d0fd88; stroke:none;" d="M490 473L490 474L494 474L490 473M551 473L551 474L643 474L615 473L551 473M656 473L656 474L661 474L656 473z"/>
<path style="fill:#0a6039; stroke:none;" d="M375.667 474.333L376.333 474.667L375.667 474.333z"/>
<path style="fill:#3cca6b; stroke:none;" d="M378.667 474.333L379.333 474.667L378.667 474.333z"/>
<path style="fill:#d0fd88; stroke:none;" d="M380 474L381 475L380 474M662.667 474.333L663.333 474.667L662.667 474.333M96 475L96 480L97 480L96 475z"/>
<path style="fill:#0a6039; stroke:none;" d="M372 477L375 475L372 477z"/>
<path style="fill:#d0fd88; stroke:none;" d="M376.667 475.333L377.333 475.667L376.667 475.333M664 475L665 476L664 475z"/>
<path style="fill:#3cca6b; stroke:none;" d="M374 476L375 477L374 476z"/>
<path style="fill:#0a6039; stroke:none;" d="M371 477C361.881 486.047 360.477 507.526 366 519L367 519C364.886 509.754 363.349 498.432 365.529 489C366.554 484.566 370.111 481.255 371 477z"/>
<path style="fill:#d0fd88; stroke:none;" d="M373 477L374 478L373 477M666 477L667 478L666 477z"/>
<path style="fill:#3cca6b; stroke:none;" d="M371 478L372 479L371 478M370 479L371 480L370 479z"/>
<path style="fill:#0a6039; stroke:none;" d="M366 480L367 481L366 480z"/>
<path style="fill:#3cca6b; stroke:none;" d="M369 480L370 481L369 480z"/>
<path style="fill:#d0fd88; stroke:none;" d="M669 480L670 481L669 480z"/>
<path style="fill:#3cca6b; stroke:none;" d="M368 481L369 482L368 481z"/>
<path style="fill:#d0fd88; stroke:none;" d="M670 481L671 482L670 481M367 483L368 484L367 483M671 483L672 484L671 483M366 485L367 486L366 485M672 486L673 487L672 486M95 488L95 496L96 496L95 488z"/>
<path style="fill:#0a6039; stroke:none;" d="M362.333 488.667L362.667 489.333L362.333 488.667z"/>
<path style="fill:#d0fd88; stroke:none;" d="M365 488L365 491L366 491L365 488z"/>
<path style="fill:#0a6039; stroke:none;" d="M250 491L250 496L251 496L250 491z"/>
<path style="fill:#037d5d; stroke:none;" d="M145.333 504.667L145.667 505.333L145.333 504.667z"/>
<path style="fill:#d0fd88; stroke:none;" d="M673 504L673 512L674 512L673 504M365 509L365 512L366 512L365 509M94 512L94 516L95 516L94 512z"/>
<path style="fill:#0a6039; stroke:none;" d="M362 512L363 513L362 512z"/>
<path style="fill:#3cca6b; stroke:none;" d="M365.333 512.667L365.667 513.333L365.333 512.667z"/>
<path style="fill:#eefee8; stroke:none;" d="M249 513L249 536L250 536L249 513z"/>
<path style="fill:#d0fd88; stroke:none;" d="M366 515L367 516L366 515M672 515L672 518L673 518L672 515z"/>
<path style="fill:#3cca6b; stroke:none;" d="M366 516L367 517L366 516z"/>
<path style="fill:#d0fd88; stroke:none;" d="M367 517L368 518L367 517z"/>
<path style="fill:#0a6039; stroke:none;" d="M367 519L371 524L383 535L418 534L418 535L416 535L416 536L460.985 534.975L481 536L489 533L490 533L490 535L491 533L492 533L492 627C492 644.308 494.208 663.309 489 680L492 681L490 684L494 687L493 641L493 532L417 532L382 531.03L367 519z"/>
<path style="fill:#d0fd88; stroke:none;" d="M368 519L369 520L368 519M671 520L672 521L671 520z"/>
<path style="fill:#037d5d; stroke:none;" d="M369 521L370 522L369 521z"/>
<path style="fill:#d0fd88; stroke:none;" d="M669 521L670 522L669 521z"/>
<path style="fill:#3cca6b; stroke:none;" d="M370 522L371 523L370 522z"/>
<path style="fill:#d0fd88; stroke:none;" d="M670 522L671 523L670 522z"/>
<path style="fill:#3cca6b; stroke:none;" d="M371 523L372 524L371 523z"/>
<path style="fill:#d0fd88; stroke:none;" d="M669 523L670 524L669 523z"/>
<path style="fill:#3cca6b; stroke:none;" d="M372 524L373 525L372 524z"/>
<path style="fill:#d0fd88; stroke:none;" d="M668 524L667 527L668 524M373 525L374 526L373 525M374 526L375 527L374 526z"/>
<path style="fill:#037d5d; stroke:none;" d="M145 527L146 528L145 527z"/>
<path style="fill:#3cca6b; stroke:none;" d="M375 527L376 528L375 527z"/>
<path style="fill:#037d5d; stroke:none;" d="M376 528L377 529L376 528z"/>
<path style="fill:#d0fd88; stroke:none;" d="M664 528L665 529L664 528z"/>
<path style="fill:#eefee8; stroke:none;" d="M787 528L787 544L788 544L787 528z"/>
<path style="fill:#3cca6b; stroke:none;" d="M378 529L379 530L378 529z"/>
<path style="fill:#d0fd88; stroke:none;" d="M662 529L663 530L662 529M660 530L661 531L660 530z"/>
<path style="fill:#0a6039; stroke:none;" d="M376.667 531.333L377.333 531.667L376.667 531.333z"/>
<path style="fill:#3cca6b; stroke:none;" d="M382 531L382 532L385 532L382 531z"/>
<path style="fill:#d0fd88; stroke:none;" d="M385 531L385 532L388 532L385 531M408 531L408 532L416 532L408 531M418 531L418 532L430 532L418 531M464 531L464 532L488 532L464 531M490.667 531.333L491.333 531.667L490.667 531.333z"/>
<path style="fill:#3cca6b; stroke:none;" d="M492 531L493 532L492 531z"/>
<path style="fill:#d0fd88; stroke:none;" d="M493 531L494 532L493 531M655.667 531.333L656.333 531.667L655.667 531.333M95 532L95 535L96 535L95 532z"/>
<path style="fill:#037d5d; stroke:none;" d="M493 532L493 536L494 536L493 532M624 532L624 533L632 533L624 532z"/>
<path style="fill:#0a6039; stroke:none;" d="M376 533L377 534L376 533M379 533L380 534L379 533z"/>
<path style="fill:#3cca6b; stroke:none;" d="M493 536L493 545L494 545L493 536z"/>
<path style="fill:#d0fd88; stroke:none;" d="M550 536L550 544L551 544L550 536z"/>
<path style="fill:#0a6039; stroke:none;" d="M486 541L488 544L486 541z"/>
<path style="fill:#eefee8; stroke:none;" d="M249 544L249 547L250 547L249 544z"/>
<path style="fill:#037d5d; stroke:none;" d="M493 545L493 560L494 560L493 545z"/>
<path style="fill:#d0fd88; stroke:none;" d="M96 548L96 551L97 551L96 548z"/>
<path style="fill:#0a6039; stroke:none;" d="M254.333 550.667L254.667 551.333L254.333 550.667z"/>
<path style="fill:#d0fd88; stroke:none;" d="M97 558L97 561L98 561L97 558z"/>
<path style="fill:#eefee8; stroke:none;" d="M249 560L249 566L250 566L249 560z"/>
<path style="fill:#0a6039; stroke:none;" d="M250 560L251 584L252 584L250 560z"/>
<path style="fill:#3cca6b; stroke:none;" d="M493 560L493 596L494 596C494 585.613 497.011 569.56 493 560z"/>
<path style="fill:#037d5d; stroke:none;" d="M149 563L150 564L149 563z"/>
<path style="fill:#d0fd88; stroke:none;" d="M98.3333 566.667L98.6667 567.333L98.3333 566.667z"/>
<path style="fill:#eefee8; stroke:none;" d="M788.333 568.667L788.667 569.333L788.333 568.667z"/>
<path style="fill:#d0fd88; stroke:none;" d="M99 572L99 575L100 575L99 572z"/>
<path style="fill:#eefee8; stroke:none;" d="M249 572L250 587L251 587L249 572z"/>
<path style="fill:#037d5d; stroke:none;" d="M250 576L250 580L251 580L250 576z"/>
<path style="fill:#d0fd88; stroke:none;" d="M100.333 578.667L100.667 579.333L100.333 578.667z"/>
<path style="fill:#eefee8; stroke:none;" d="M156.333 579.667L156.667 580.333L156.333 579.667z"/>
<path style="fill:#3cca6b; stroke:none;" d="M250.333 580.667L250.667 581.333L250.333 580.667z"/>
<path style="fill:#d0fd88; stroke:none;" d="M250 582L251 583L250 582z"/>
<path style="fill:#0a6039; stroke:none;" d="M254.333 582.667L254.667 583.333L254.333 582.667z"/>
<path style="fill:#d0fd88; stroke:none;" d="M101 583L102 584L101 583z"/>
<path style="fill:#037d5d; stroke:none;" d="M153 584L154 585L153 584z"/>
<path style="fill:#0a6039; stroke:none;" d="M252 584L252 587L253 587L252 584M254 585L256 595L257 595L256 585L254 585z"/>
<path style="fill:#eefee8; stroke:none;" d="M158 586L159 587L158 586z"/>
<path style="fill:#3cca6b; stroke:none;" d="M251 586L252 587L251 586z"/>
<path style="fill:#d0fd88; stroke:none;" d="M102.333 588.667L102.667 589.333L102.333 588.667z"/>
<path style="fill:#eefee8; stroke:none;" d="M251 588L252 589L251 588z"/>
<path style="fill:#3cca6b; stroke:none;" d="M252 588L253 589L252 588M253 590L254 591L253 590z"/>
<path style="fill:#eefee8; stroke:none;" d="M252 592L253 593L252 592z"/>
<path style="fill:#3cca6b; stroke:none;" d="M254 592L255 593L254 592z"/>
<path style="fill:#0a6039; stroke:none;" d="M257 592L258 595L260 593L263 596L262 593L264 594L264 593L257 592z"/>
<path style="fill:#eefee8; stroke:none;" d="M253 593L257 598L253 593z"/>
<path style="fill:#d0fd88; stroke:none;" d="M254 593L255 594L254 593M103.333 594.667L103.667 595.333L103.333 594.667z"/>
<path style="fill:#3cca6b; stroke:none;" d="M255 594L256 595L255 594z"/>
<path style="fill:#eefee8; stroke:none;" d="M251 595L255 600L251 595z"/>
<path style="fill:#d0fd88; stroke:none;" d="M255 595L256 596L255 595z"/>
<path style="fill:#0a6039; stroke:none;" d="M257 595L260 599C261.31 594.962 259.338 596.723 257 595z"/>
<path style="fill:#d0fd88; stroke:none;" d="M256 596L257 597L256 596z"/>
<path style="fill:#037d5d; stroke:none;" d="M493 596L493 616L494 616L493 596z"/>
<path style="fill:#3cca6b; stroke:none;" d="M257 597L258 598L257 597z"/>
<path style="fill:#0a6039; stroke:none;" d="M263 597L264 598L263 597z"/>
<path style="fill:#d0fd88; stroke:none;" d="M104.333 598.667L104.667 599.333L104.333 598.667z"/>
<path style="fill:#0a6039; stroke:none;" d="M262 598C259.971 602.072 263.432 604.317 267 606L262 598z"/>
<path style="fill:#eefee8; stroke:none;" d="M251 599L252 600L251 599z"/>
<path style="fill:#037d5d; stroke:none;" d="M777 599L778 600L777 599z"/>
<path style="fill:#eefee8; stroke:none;" d="M258 600L259 601L258 600z"/>
<path style="fill:#0a6039; stroke:none;" d="M263 600L271 607L263 600M266 600L267 601L266 600z"/>
<path style="fill:#3cca6b; stroke:none;" d="M260 601L262 603L260 601z"/>
<path style="fill:#eefee8; stroke:none;" d="M257 602L258 603L257 602M260 602L261 603L260 602z"/>
<path style="fill:#0a6039; stroke:none;" d="M269 602L271 604L269 602z"/>
<path style="fill:#d0fd88; stroke:none;" d="M105 603L105 606L106 606L105 603z"/>
<path style="fill:#3cca6b; stroke:none;" d="M262 603L264 605L262 603z"/>
<path style="fill:#eefee8; stroke:none;" d="M256 604L257 605L256 604M259 604L260 605L259 604M262 604L263 605L262 604z"/>
<path style="fill:#0a6039; stroke:none;" d="M267 606L270 608L270 607L267 606z"/>
<path style="fill:#d0fd88; stroke:none;" d="M106 607L107 608L106 607z"/>
<path style="fill:#eefee8; stroke:none;" d="M256 607L257 608L256 607z"/>
<path style="fill:#3cca6b; stroke:none;" d="M267 607L268 608L267 607z"/>
<path style="fill:#eefee8; stroke:none;" d="M165 608L166 611L167 611L165 608M264 608L265 609L264 608M267 608L270 611L267 608z"/>
<path style="fill:#d0fd88; stroke:none;" d="M268 608L269 609L268 608z"/>
<path style="fill:#0a6039; stroke:none;" d="M270 608L270 609L283 614L270 608M287 608L284 612L288 613L288 612L286 611C288.158 610.022 288.501 609.812 287 608M403.333 608.667L403.667 609.333L403.333 608.667z"/>
<path style="fill:#d0fd88; stroke:none;" d="M550 608L550 648L551 648C551 636.566 554.411 618.512 550 608z"/>
<path style="fill:#3cca6b; stroke:none;" d="M270 609L271 610L270 609z"/>
<path style="fill:#0a6039; stroke:none;" d="M405.333 609.667L405.667 610.333L405.333 609.667z"/>
<path style="fill:#d0fd88; stroke:none;" d="M107.333 610.667L107.667 611.333L107.333 610.667z"/>
<path style="fill:#eefee8; stroke:none;" d="M265.667 610.333L266.333 610.667L265.667 610.333z"/>
<path style="fill:#3cca6b; stroke:none;" d="M272 610L273 611L272 610z"/>
<path style="fill:#0a6039; stroke:none;" d="M277 610L277 611L281 611L281 610L277 610M407 610L408 611L407 610z"/>
<path style="fill:#eefee8; stroke:none;" d="M271 611L272 612L271 611z"/>
<path style="fill:#3cca6b; stroke:none;" d="M274 611L275 612L274 611z"/>
<path style="fill:#0a6039; stroke:none;" d="M292 611L292 612L296 613L292 611M401 611L401 612L405 613L405 612L401 611z"/>
<path style="fill:#eefee8; stroke:none;" d="M165.333 612.667L165.667 613.333L165.333 612.667M268.667 612.333L269.333 612.667L268.667 612.333z"/>
<path style="fill:#3cca6b; stroke:none;" d="M276 612L277 613L276 612z"/>
<path style="fill:#0a6039; stroke:none;" d="M283 614L283 615L371 615C377.735 615 396.487 618.164 401 613L343 614L319 612L318 612L312 614L313 612L283 614M314 612L315 613L314 612M316 612L317 613L316 612M320 612L320 613L328 613L320 612M360 612L361 613L360 612M362 612L363 613L362 612M364 612L365 613L364 612M366.667 612.333L367.333 612.667L366.667 612.333z"/>
<path style="fill:#eefee8; stroke:none;" d="M167 613L168 614L167 613z"/>
<path style="fill:#3cca6b; stroke:none;" d="M278 613L279 614L278 613z"/>
<path style="fill:#0a6039; stroke:none;" d="M406 613L407 614L406 613z"/>
<path style="fill:#d0fd88; stroke:none;" d="M108.333 614.667L108.667 615.333L108.333 614.667z"/>
<path style="fill:#eefee8; stroke:none;" d="M279 614L281 616L279 614z"/>
<path style="fill:#d0fd88; stroke:none;" d="M280 614L281 615L280 614z"/>
<path style="fill:#3cca6b; stroke:none;" d="M281 614L282 615L281 614z"/>
<path style="fill:#0a6039; stroke:none;" d="M402 614L403 615L402 614z"/>
<path style="fill:#eefee8; stroke:none;" d="M166.333 615.667L166.667 616.333L166.333 615.667z"/>
<path style="fill:#3cca6b; stroke:none;" d="M296 615L296 616L387 616L359 615L296 615z"/>
<path style="fill:#eefee8; stroke:none;" d="M401 615L400.961 717L402 756L403 756C397.042 723.906 402 686.658 402 654C402 642.842 405.308 625.266 401 615z"/>
<path style="fill:#0a6039; stroke:none;" d="M405 615L406 616L405 615z"/>
<path style="fill:#3cca6b; stroke:none;" d="M493 616L493 675L494 675L494 635L493 616z"/>
<path style="fill:#d0fd88; stroke:none;" d="M109 618L110 619L109 618z"/>
<path style="fill:#0a6039; stroke:none;" d="M403 618L402.961 649L403 701L404 701L404 644L403 618z"/>
<path style="fill:#d0fd88; stroke:none;" d="M110.333 621.667L110.667 622.333L110.333 621.667M111 625L112 626L111 625z"/>
<path style="fill:#037d5d; stroke:none;" d="M402 625L403 626L402 625M165 627L166 628L165 627z"/>
<path style="fill:#d0fd88; stroke:none;" d="M112.333 628.667L112.667 629.333L112.333 628.667z"/>
<path style="fill:#eefee8; stroke:none;" d="M170 632L171 633L170 632M174 632L175 633L174 632z"/>
<path style="fill:#d0fd88; stroke:none;" d="M114 634L115 635L114 634z"/>
<path style="fill:#eefee8; stroke:none;" d="M169 634L170 635L169 634z"/>
<path style="fill:#d0fd88; stroke:none;" d="M115.333 637.667L115.667 638.333L115.333 637.667z"/>
<path style="fill:#037d5d; stroke:none;" d="M170 640L171 641L170 640z"/>
<path style="fill:#0a6039; stroke:none;" d="M407 640L407 644L408 644L407 640z"/>
<path style="fill:#d0fd88; stroke:none;" d="M117.333 642.667L117.667 643.333L117.333 642.667z"/>
<path style="fill:#0a6039; stroke:none;" d="M489 643L489 648L490 648L489 643z"/>
<path style="fill:#037d5d; stroke:none;" d="M402 644L402 668L403 668L402 644z"/>
<path style="fill:#d0fd88; stroke:none;" d="M118.333 645.667L118.667 646.333L118.333 645.667M118 648L120 650L120 648L118 648z"/>
<path style="fill:#0a6039; stroke:none;" d="M408 648L407 680L408 680L408 648z"/>
<path style="fill:#d0fd88; stroke:none;" d="M120 651L121 652L120 651z"/>
<path style="fill:#037d5d; stroke:none;" d="M121 651L122 652L121 651M174 651L175 652L174 651z"/>
<path style="fill:#d0fd88; stroke:none;" d="M550 651L550 672L551 672L550 651M121 654L122 655L121 654M122 656L123 657L122 656z"/>
<path style="fill:#eefee8; stroke:none;" d="M190 657L191 658L190 657z"/>
<path style="fill:#d0fd88; stroke:none;" d="M123 659L124 660L123 659z"/>
<path style="fill:#037d5d; stroke:none;" d="M124 659L125 660L124 659z"/>
<path style="fill:#d0fd88; stroke:none;" d="M124 661L125 662L124 661z"/>
<path style="fill:#037d5d; stroke:none;" d="M125 661L126 662L125 661M179 663L180 664L179 663z"/>
<path style="fill:#d0fd88; stroke:none;" d="M125 664L126 665L125 664M126 666L127 667L126 666M127.333 668.667L127.667 669.333L127.333 668.667z"/>
<path style="fill:#037d5d; stroke:none;" d="M182 669L183 670L182 669z"/>
<path style="fill:#d0fd88; stroke:none;" d="M128 671L129 672L128 671M129 673L130 674L129 673M130 675L131 676L130 675M493 675L495 681L493 675z"/>
<path style="fill:#037d5d; stroke:none;" d="M186 677L187 678L186 677z"/>
<path style="fill:#d0fd88; stroke:none;" d="M550 678L550 681L551 681L550 678M132 680L133 681L132 680z"/>
<path style="fill:#037d5d; stroke:none;" d="M185 680L186 681L185 680z"/>
<path style="fill:#0a6039; stroke:none;" d="M488 681L489 682L488 681z"/>
<path style="fill:#d0fd88; stroke:none;" d="M133 682L134 683L133 682z"/>
<path style="fill:#037d5d; stroke:none;" d="M550.333 682.667L550.667 683.333L550.333 682.667M494 683L495 684L494 683z"/>
<path style="fill:#d0fd88; stroke:none;" d="M549 683L550 684L549 683M134 684L135 685L134 684z"/>
<path style="fill:#0a6039; stroke:none;" d="M488 685L489 688L490 688L488 685z"/>
<path style="fill:#d0fd88; stroke:none;" d="M548 685L549 686L548 685M135 686L136 687L135 686z"/>
<path style="fill:#0a6039; stroke:none;" d="M495 686L494 687L496 692L504 696L495 686z"/>
<path style="fill:#3cca6b; stroke:none;" d="M496 686L497 687L496 686z"/>
<path style="fill:#0a6039; stroke:none;" d="M492 687L493 688L492 687z"/>
<path style="fill:#037d5d; stroke:none;" d="M549 687L550 688L549 687z"/>
<path style="fill:#d0fd88; stroke:none;" d="M136 688L137 689L136 688z"/>
<path style="fill:#eefee8; stroke:none;" d="M198 688L199 689L198 688z"/>
<path style="fill:#d0fd88; stroke:none;" d="M546 688L547 689L546 688z"/>
<path style="fill:#037d5d; stroke:none;" d="M547 688L548 689L547 688z"/>
<path style="fill:#0a6039; stroke:none;" d="M408 689L408 696L409 696L408 689z"/>
<path style="fill:#3cca6b; stroke:none;" d="M498 689L499 690L498 689z"/>
<path style="fill:#037d5d; stroke:none;" d="M546 689L547 690L546 689z"/>
<path style="fill:#d0fd88; stroke:none;" d="M137 690L138 691L137 690z"/>
<path style="fill:#eefee8; stroke:none;" d="M197 690L198 691L197 690z"/>
<path style="fill:#3cca6b; stroke:none;" d="M499 690L500 691L499 690z"/>
<path style="fill:#d0fd88; stroke:none;" d="M544 690L543 692L544 690z"/>
<path style="fill:#3cca6b; stroke:none;" d="M500 691L501 692L500 691z"/>
<path style="fill:#037d5d; stroke:none;" d="M544 691L545 692L544 691M548 691L549 692L548 691z"/>
<path style="fill:#eefee8; stroke:none;" d="M198 692L199 693L198 692z"/>
<path style="fill:#0a6039; stroke:none;" d="M497 692L500 696L497 692z"/>
<path style="fill:#3cca6b; stroke:none;" d="M501 692L502 693L501 692z"/>
<path style="fill:#d0fd88; stroke:none;" d="M542 692L543 693L542 692M138 693L139 694L138 693z"/>
<path style="fill:#037d5d; stroke:none;" d="M195 693L196 694L195 693z"/>
<path style="fill:#3cca6b; stroke:none;" d="M502 693L503 694L502 693z"/>
<path style="fill:#d0fd88; stroke:none;" d="M541 693L542 694L541 693z"/>
<path style="fill:#3cca6b; stroke:none;" d="M503 694L504 695L503 694z"/>
<path style="fill:#d0fd88; stroke:none;" d="M504 694L505 695L504 694z"/>
<path style="fill:#eefee8; stroke:none;" d="M198 695L199 696L198 695z"/>
<path style="fill:#d0fd88; stroke:none;" d="M505 695L506 696L505 695M538 695L539 696L538 695z"/>
<path style="fill:#eefee8; stroke:none;" d="M202 696L203 697L202 696z"/>
<path style="fill:#0a6039; stroke:none;" d="M504 696L505 697L504 696z"/>
<path style="fill:#3cca6b; stroke:none;" d="M506 696L507 697L506 696z"/>
<path style="fill:#d0fd88; stroke:none;" d="M507 696L508 697L507 696z"/>
<path style="fill:#037d5d; stroke:none;" d="M538 696L539 697L538 696z"/>
<path style="fill:#d0fd88; stroke:none;" d="M140 697L141 698L140 697z"/>
<path style="fill:#0a6039; stroke:none;" d="M505.667 697.333L506.333 697.667L505.667 697.333z"/>
<path style="fill:#3cca6b; stroke:none;" d="M507 699L510 697L507 699z"/>
<path style="fill:#d0fd88; stroke:none;" d="M534 697L535 698L534 697z"/>
<path style="fill:#037d5d; stroke:none;" d="M535 698L536 699L535 698z"/>
<path style="fill:#d0fd88; stroke:none;" d="M141 699L142 700L141 699z"/>
<path style="fill:#eefee8; stroke:none;" d="M201 699L202 700L201 699M204 699L205 700L204 699z"/>
<path style="fill:#3cca6b; stroke:none;" d="M510.667 699.333L511.333 699.667L510.667 699.333z"/>
<path style="fill:#d0fd88; stroke:none;" d="M142 701L143 702L142 701z"/>
<path style="fill:#037d5d; stroke:none;" d="M519 702L520 703L519 702M532.667 702.333L533.333 702.667L532.667 702.333z"/>
<path style="fill:#d0fd88; stroke:none;" d="M144 704L145 705L144 704z"/>
<path style="fill:#0a6039; stroke:none;" d="M403 704L403 720L404 720L403 704M407 704L407 709L408 709L407 704z"/>
<path style="fill:#d0fd88; stroke:none;" d="M145 706L146 707L145 706z"/>
<path style="fill:#037d5d; stroke:none;" d="M203 706L204 707L203 706z"/>
<path style="fill:#d0fd88; stroke:none;" d="M146 708L147 709L146 708M147 710L148 711L147 710z"/>
<path style="fill:#0a6039; stroke:none;" d="M405.333 710.667L405.667 711.333L405.333 710.667z"/>
<path style="fill:#d0fd88; stroke:none;" d="M148 711L149 712L148 711z"/>
<path style="fill:#037d5d; stroke:none;" d="M206 711L207 712L206 711z"/>
<path style="fill:#0a6039; stroke:none;" d="M407 712L407 720L408 720L407 712z"/>
<path style="fill:#d0fd88; stroke:none;" d="M149 713L150 714L149 713z"/>
<path style="fill:#eefee8; stroke:none;" d="M213 713L214 714L213 713z"/>
<path style="fill:#d0fd88; stroke:none;" d="M150 715L151 716L150 715z"/>
<path style="fill:#037d5d; stroke:none;" d="M209 715L210 716L209 715z"/>
<path style="fill:#d0fd88; stroke:none;" d="M151 717L152 718L151 717M152 719L153 720L152 719M153 720L154 721L153 720z"/>
<path style="fill:#eefee8; stroke:none;" d="M216 720L217 721L216 720M219 720L218 722L219 720z"/>
<path style="fill:#0a6039; stroke:none;" d="M408 721L408 736L409 736L408 721z"/>
<path style="fill:#d0fd88; stroke:none;" d="M154 722L155 723L154 722M155 724L156 725L155 724z"/>
<path style="fill:#0a6039; stroke:none;" d="M403 724L403 755L404 755L403 724z"/>
<path style="fill:#037d5d; stroke:none;" d="M216 726L217 727L216 726z"/>
<path style="fill:#d0fd88; stroke:none;" d="M157 727L158 728L157 727z"/>
<path style="fill:#037d5d; stroke:none;" d="M158 727L159 728L158 727M218 728L219 729L218 728z"/>
<path style="fill:#eefee8; stroke:none;" d="M222 728L223 729L222 728z"/>
<path style="fill:#d0fd88; stroke:none;" d="M158 729L159 730L158 729M159 730L160 731L159 730z"/>
<path style="fill:#037d5d; stroke:none;" d="M219 730L220 731L219 730z"/>
<path style="fill:#eefee8; stroke:none;" d="M221 730L222 731L221 730z"/>
<path style="fill:#d0fd88; stroke:none;" d="M160 732L161 733L160 732M161.333 733.667L161.667 734.333L161.333 733.667z"/>
<path style="fill:#037d5d; stroke:none;" d="M222 734L223 735L222 734z"/>
<path style="fill:#d0fd88; stroke:none;" d="M162 735L163 736L162 735z"/>
<path style="fill:#037d5d; stroke:none;" d="M223 735L224 736L223 735M224 736L225 739L226 739L224 736z"/>
<path style="fill:#eefee8; stroke:none;" d="M225 736L226 737L225 736M226 737L227 738L226 737z"/>
<path style="fill:#d0fd88; stroke:none;" d="M164 738L165 739L164 738z"/>
<path style="fill:#037d5d; stroke:none;" d="M226 739L227 740L226 739z"/>
<path style="fill:#eefee8; stroke:none;" d="M230 739L231 740L230 739z"/>
<path style="fill:#037d5d; stroke:none;" d="M227.333 740.667L227.667 741.333L227.333 740.667z"/>
<path style="fill:#d0fd88; stroke:none;" d="M166 741L167 742L166 741z"/>
<path style="fill:#037d5d; stroke:none;" d="M167 741L168 742L167 741z"/>
<path style="fill:#d0fd88; stroke:none;" d="M168 744L169 745L168 744z"/>
<path style="fill:#eefee8; stroke:none;" d="M232 744L233 745L232 744M235 744L234 746L235 744M238 744L237 746L238 744z"/>
<path style="fill:#0a6039; stroke:none;" d="M406 744L407 749L408 749L406 744z"/>
<path style="fill:#d0fd88; stroke:none;" d="M169.333 745.667L169.667 746.333L169.333 745.667M170 747L171 748L170 747M171 748L172 749L171 748z"/>
<path style="fill:#eefee8; stroke:none;" d="M238 748L237 750L238 748z"/>
<path style="fill:#d0fd88; stroke:none;" d="M172 750L173 751L172 750M173 751L174 752L173 751z"/>
<path style="fill:#0a6039; stroke:none;" d="M405 751L406 752L405 751z"/>
<path style="fill:#d0fd88; stroke:none;" d="M174.333 752.667L174.667 753.333L174.333 752.667z"/>
<path style="fill:#3cca6b; stroke:none;" d="M402 752L403 753L402 752z"/>
<path style="fill:#0a6039; stroke:none;" d="M407 752L408 753L407 752z"/>
<path style="fill:#eefee8; stroke:none;" d="M240 753L241 754L240 753M243 753L248 756L248 755L243 753z"/>
<path style="fill:#d0fd88; stroke:none;" d="M402 753L403 754L402 753z"/>
<path style="fill:#0a6039; stroke:none;" d="M405 753L405 755L407 755L405 753z"/>
<path style="fill:#d0fd88; stroke:none;" d="M175 754L176 755L175 754z"/>
<path style="fill:#037d5d; stroke:none;" d="M634.333 754.667L634.667 755.333L634.333 754.667z"/>
<path style="fill:#eefee8; stroke:none;" d="M639 754L640 755L639 754z"/>
<path style="fill:#d0fd88; stroke:none;" d="M176 755L177 756L176 755z"/>
<path style="fill:#0a6039; stroke:none;" d="M404.333 755.667L404.667 756.333L404.333 755.667z"/>
<path style="fill:#3cca6b; stroke:none;" d="M403 756L404 757L403 756z"/>
<path style="fill:#037d5d; stroke:none;" d="M633.333 756.667L633.667 757.333L633.333 756.667z"/>
<path style="fill:#d0fd88; stroke:none;" d="M177 757L178 758L177 757z"/>
<path style="fill:#eefee8; stroke:none;" d="M401 757L402 758L401 757M403 757L404 758L403 757z"/>
<path style="fill:#0a6039; stroke:none;" d="M405 757L407 762L408 762L405 757M407 757L408 758L407 757z"/>
<path style="fill:#d0fd88; stroke:none;" d="M178 758L179 759L178 758z"/>
<path style="fill:#eefee8; stroke:none;" d="M247 758L246 760L247 758z"/>
<path style="fill:#3cca6b; stroke:none;" d="M404 758L405 759L404 758z"/>
<path style="fill:#eefee8; stroke:none;" d="M404 759L407 765L408 765L404 759z"/>
<path style="fill:#037d5d; stroke:none;" d="M405 759L406 760L405 759M632 759L633 760L632 759z"/>
<path style="fill:#eefee8; stroke:none;" d="M249.667 760.333L250.333 760.667L249.667 760.333z"/>
<path style="fill:#d0fd88; stroke:none;" d="M405 760L406 761L405 760z"/>
<path style="fill:#0a6039; stroke:none;" d="M408 760L408 763L410 761L411 761L416 765L416 764L416 763L408 760z"/>
<path style="fill:#037d5d; stroke:none;" d="M631 760L632 761L631 760z"/>
<path style="fill:#d0fd88; stroke:none;" d="M180 761L181 762L180 761z"/>
<path style="fill:#eefee8; stroke:none;" d="M252 761L253 762L252 761z"/>
<path style="fill:#3cca6b; stroke:none;" d="M406 761L407 762L406 761z"/>
<path style="fill:#0a6039; stroke:none;" d="M415 761L416 762L415 761z"/>
<path style="fill:#d0fd88; stroke:none;" d="M181 762L182 763L181 762z"/>
<path style="fill:#eefee8; stroke:none;" d="M403 762L404 763L403 762z"/>
<path style="fill:#0a6039; stroke:none;" d="M410 762L414 768L414 765L410 762z"/>
<path style="fill:#037d5d; stroke:none;" d="M183 763L184 764L183 763z"/>
<path style="fill:#eefee8; stroke:none;" d="M401 763L402 764L401 763z"/>
<path style="fill:#d0fd88; stroke:none;" d="M407 763L408 764L407 763z"/>
<path style="fill:#eefee8; stroke:none;" d="M404 764L405 765L404 764z"/>
<path style="fill:#037d5d; stroke:none;" d="M628 764L627 766L628 764z"/>
<path style="fill:#d0fd88; stroke:none;" d="M183 765L184 766L183 765M184 766L185 767L184 766z"/>
<path style="fill:#eefee8; stroke:none;" d="M402 766L403 767L402 766z"/>
<path style="fill:#0a6039; stroke:none;" d="M414 766L414 769L415 769L414 766z"/>
<path style="fill:#037d5d; stroke:none;" d="M624 766L626 768L624 766z"/>
<path style="fill:#eefee8; stroke:none;" d="M631 766L632 767L631 766M639 767L640 768L639 767M411 768L412 769L411 768z"/>
<path style="fill:#037d5d; stroke:none;" d="M536.667 768.333L537.333 768.667L536.667 768.333z"/>
<path style="fill:#d0fd88; stroke:none;" d="M186 769L187 770L186 769z"/>
<path style="fill:#eefee8; stroke:none;" d="M258 769L259 770L258 769z"/>
<path style="fill:#0a6039; stroke:none;" d="M415 769L415 770L424 773L423 770L419 771L419 770L421 770L415 769M423 769L424 770L423 769M432 769L432 770L440 770L432 769M424 771L424 772L446 772L446 773L424 773L424 774L506 774L506 773L475 773L475 772L504 772L504 771L493 771L493 770L500 770L500 769L464 771L464 770L472 770C462.322 765.939 447.26 770.262 437 770.791C432.464 771.025 428.49 769.701 424 771z"/>
<path style="fill:#037d5d; stroke:none;" d="M621 769L622 770L621 769z"/>
<path style="fill:#d0fd88; stroke:none;" d="M187 770L188 771L187 770z"/>
<path style="fill:#eefee8; stroke:none;" d="M413 770L414 771L413 770z"/>
<path style="fill:#3cca6b; stroke:none;" d="M415 770L416 771L415 770z"/>
<path style="fill:#037d5d; stroke:none;" d="M491 770L492 771L491 770M534 770L535 771L534 770M619.667 770.333L620.333 770.667L619.667 770.333z"/>
<path style="fill:#eefee8; stroke:none;" d="M411 771L412 772L411 771M415 771L416 772L415 771z"/>
<path style="fill:#3cca6b; stroke:none;" d="M417 771L418 772L417 771z"/>
<path style="fill:#037d5d; stroke:none;" d="M509 771L510 772L509 771M617.667 771.333L618.333 771.667L617.667 771.333z"/>
<path style="fill:#eefee8; stroke:none;" d="M414.333 772.667L414.667 773.333L414.333 772.667z"/>
<path style="fill:#3cca6b; stroke:none;" d="M419 772L420 773L419 772z"/>
<path style="fill:#037d5d; stroke:none;" d="M458 772L458 773L464 773L458 772M612.667 772.333L613.333 772.667L612.667 772.333z"/>
<path style="fill:#eefee8; stroke:none;" d="M623 772L624 773L623 772z"/>
<path style="fill:#3cca6b; stroke:none;" d="M422 773L423 774L422 773z"/>
<path style="fill:#eefee8; stroke:none;" d="M411.667 774.333L412.333 774.667L411.667 774.333M415.667 774.333L416.333 774.667L415.667 774.333z"/>
<path style="fill:#3cca6b; stroke:none;" d="M429 774L429 775L602 775L585 774L550 774L429 774z"/>
<path style="fill:#eefee8; stroke:none;" d="M504 775L505 776L504 775z"/>
<path style="fill:#d0fd88; stroke:none;" d="M192 776L193 777L192 776z"/>
<path style="fill:#eefee8; stroke:none;" d="M266 776L267 777L266 776z"/>
<path style="fill:#d0fd88; stroke:none;" d="M193 777L194 778L193 777M194 778L195 779L194 778z"/>
<path style="fill:#037d5d; stroke:none;" d="M196 779L197 780L196 779z"/>
<path style="fill:#d0fd88; stroke:none;" d="M197 782L198 783L197 782M198 783L199 784L198 783M199 784L200 785L199 784M200 785L201 786L200 785z"/>
<path style="fill:#037d5d; stroke:none;" d="M201 785L202 786L201 785M205 790L206 791L205 790z"/>
<path style="fill:#d0fd88; stroke:none;" d="M206 792L207 793L206 792M207 793L208 794L207 793M208 794L209 795L208 794M209 795L210 796L209 795M210 796L212 798L210 796z"/>
<path style="fill:#037d5d; stroke:none;" d="M211 796L212 797L211 796z"/>
<path style="fill:#eefee8; stroke:none;" d="M294 800L295 801L294 800z"/>
<path style="fill:#d0fd88; stroke:none;" d="M214 801L215 802L214 801z"/>
<path style="fill:#eefee8; stroke:none;" d="M302 804L302 806L304 804L302 804z"/>
<path style="fill:#d0fd88; stroke:none;" d="M218 805L219 806L218 805M219 806L220 807L219 806z"/>
<path style="fill:#037d5d; stroke:none;" d="M222 807L223 808L222 807z"/>
<path style="fill:#eefee8; stroke:none;" d="M311 808L312 809L311 808z"/>
<path style="fill:#d0fd88; stroke:none;" d="M222 809L223 810L222 809z"/>
<path style="fill:#037d5d; stroke:none;" d="M224 809L225 810L224 809z"/>
<path style="fill:#eefee8; stroke:none;" d="M311 811L312 812L311 811z"/>
<path style="fill:#d0fd88; stroke:none;" d="M228 814L229 815L228 814M230 816L231 817L230 816z"/>
<path style="fill:#eefee8; stroke:none;" d="M317.667 816.333L318.333 816.667L317.667 816.333z"/>
<path style="fill:#d0fd88; stroke:none;" d="M231 817L232 818L231 817z"/>
<path style="fill:#eefee8; stroke:none;" d="M320 817L321 818L320 817z"/>
<path style="fill:#d0fd88; stroke:none;" d="M233 819L234 820L233 819z"/>
<path style="fill:#eefee8; stroke:none;" d="M323 819L324 820L323 819z"/>
<path style="fill:#d0fd88; stroke:none;" d="M234 820L235 821L234 820M235 821L236 822L235 821M236 822L237 823L236 822M237 823L238 824L237 823M239 825L240 826L239 825M240 826L241 827L240 826z"/>
<path style="fill:#eefee8; stroke:none;" d="M331 826L332 827L331 826z"/>
<path style="fill:#037d5d; stroke:none;" d="M245 829L248 832L245 829z"/>
<path style="fill:#d0fd88; stroke:none;" d="M245 830L246 831L245 830M246 831L247 832L246 831z"/>
<path style="fill:#037d5d; stroke:none;" d="M248 832L249 833L248 832M249 833L250 834L249 833z"/>
<path style="fill:#eefee8; stroke:none;" d="M345.667 833.333L346.333 833.667L345.667 833.333z"/>
<path style="fill:#037d5d; stroke:none;" d="M251 834L252 835L251 834z"/>
<path style="fill:#eefee8; stroke:none;" d="M348 834L349 835L348 834z"/>
<path style="fill:#037d5d; stroke:none;" d="M252 835L255 838L252 835z"/>
<path style="fill:#eefee8; stroke:none;" d="M346 835L347 836L346 835z"/>
<path style="fill:#d0fd88; stroke:none;" d="M252 836L253 837L252 836M253 837L254 838L253 837z"/>
<path style="fill:#eefee8; stroke:none;" d="M367 840L368 841L367 840z"/>
<path style="fill:#d0fd88; stroke:none;" d="M258 841L259 842L258 841z"/>
<path style="fill:#eefee8; stroke:none;" d="M363 841L363 842L366 842L363 841z"/>
<path style="fill:#d0fd88; stroke:none;" d="M259 842L260 843L259 842z"/>
<path style="fill:#eefee8; stroke:none;" d="M367 842L368 843L367 842z"/>
<path style="fill:#037d5d; stroke:none;" d="M264 844L265 845L264 844z"/>
<path style="fill:#d0fd88; stroke:none;" d="M263 845L264 846L263 845z"/>
<path style="fill:#eefee8; stroke:none;" d="M369 845L371 847L369 845z"/>
<path style="fill:#d0fd88; stroke:none;" d="M264 846L265 847L264 846M266 847L267 848L266 847M267 848L268 849L267 848z"/>
<path style="fill:#eefee8; stroke:none;" d="M379 851L385 851C382.635 848.523 381.083 848.11 379 851M384 848L385 849L384 848z"/>
<path style="fill:#d0fd88; stroke:none;" d="M268 849L269 850L268 849z"/>
<path style="fill:#037d5d; stroke:none;" d="M270 849L271 850L270 849z"/>
<path style="fill:#d0fd88; stroke:none;" d="M270 850L271 851L270 850M271 851L272 852L271 851z"/>
<path style="fill:#eefee8; stroke:none;" d="M387.667 851.333L388.333 851.667L387.667 851.333M391.333 852.667L391.667 853.333L391.333 852.667z"/>
<path style="fill:#d0fd88; stroke:none;" d="M274 853L275 854L274 853z"/>
<path style="fill:#037d5d; stroke:none;" d="M276 853L277 854L276 853z"/>
<path style="fill:#d0fd88; stroke:none;" d="M276 854L277 855L276 854M277 855L278 856L277 855M278 856L279 857L278 856z"/>
<path style="fill:#eefee8; stroke:none;" d="M415 856L416 857L415 856z"/>
<path style="fill:#d0fd88; stroke:none;" d="M280 857L281 858L280 857z"/>
<path style="fill:#eefee8; stroke:none;" d="M412.667 857.333L413.333 857.667L412.667 857.333M408 858L409 859L408 858z"/>
<path style="fill:#d0fd88; stroke:none;" d="M283 859L284 860L283 859z"/>
<path style="fill:#037d5d; stroke:none;" d="M284 859L285 860L284 859z"/>
<path style="fill:#eefee8; stroke:none;" d="M411 859L412 860L411 859M413 860L415 862L413 860M428 864L428 865L431 865L428 864z"/>
<path style="fill:#d0fd88; stroke:none;" d="M292 865L293 866L292 865z"/>
<path style="fill:#037d5d; stroke:none;" d="M294 865L295 866L294 865z"/>
<path style="fill:#eefee8; stroke:none;" d="M432.667 865.333L433.333 865.667L432.667 865.333z"/>
<path style="fill:#d0fd88; stroke:none;" d="M294 866L295 867L294 866z"/>
<path style="fill:#eefee8; stroke:none;" d="M444.667 867.333L445.333 867.667L444.667 867.333z"/>
<path style="fill:#d0fd88; stroke:none;" d="M297 868L298 869L297 868M299 869L300 870L299 869z"/>
<path style="fill:#eefee8; stroke:none;" d="M444 869L445 870L444 869z"/>
<path style="fill:#d0fd88; stroke:none;" d="M300 870L301 871L300 870M302 871L303 872L302 871M304 872L305 873L304 872M305 873L306 874L305 873z"/>
<path style="fill:#eefee8; stroke:none;" d="M487 873L487 874L490 874L487 873M530 873L531 874L530 873M532 873L532 874L536 874L532 873z"/>
<path style="fill:#d0fd88; stroke:none;" d="M307 874L308 875L307 874z"/>
<path style="fill:#037d5d; stroke:none;" d="M308 874L309 875L308 874z"/>
<path style="fill:#eefee8; stroke:none;" d="M494.667 874.333L495.333 874.667L494.667 874.333z"/>
<path style="fill:#037d5d; stroke:none;" d="M310 875L311 876L310 875z"/>
<path style="fill:#eefee8; stroke:none;" d="M503 875L504 876L503 875M528 875L528 876L533 876L528 875z"/>
<path style="fill:#037d5d; stroke:none;" d="M312 876L313 877L312 876z"/>
<path style="fill:#d0fd88; stroke:none;" d="M312 877L313 878L312 877z"/>
<path style="fill:#037d5d; stroke:none;" d="M314 877L315 878L314 877M316 878L317 879L316 878z"/>
<path style="fill:#d0fd88; stroke:none;" d="M316 879L317 880L316 879M318 880L319 881L318 880z"/>
<path style="fill:#037d5d; stroke:none;" d="M320 880L321 881L320 880z"/>
<path style="fill:#d0fd88; stroke:none;" d="M320 881L321 882L320 881z"/>
<path style="fill:#037d5d; stroke:none;" d="M322 881L323 882L322 881z"/>
<path style="fill:#d0fd88; stroke:none;" d="M322 882L323 883L322 882z"/>
<path style="fill:#037d5d; stroke:none;" d="M324 882L325 883L324 882z"/>
<path style="fill:#d0fd88; stroke:none;" d="M324 883L325 884L324 883z"/>
<path style="fill:#037d5d; stroke:none;" d="M326 883L327 884L326 883z"/>
<path style="fill:#d0fd88; stroke:none;" d="M326 884L327 885L326 884z"/>
<path style="fill:#037d5d; stroke:none;" d="M328 884L329 885L328 884z"/>
<path style="fill:#d0fd88; stroke:none;" d="M328 885L329 886L328 885z"/>
<path style="fill:#037d5d; stroke:none;" d="M330 885L331 886L330 885z"/>
<path style="fill:#d0fd88; stroke:none;" d="M332 885L333 886L332 885M330 886L331 887L330 886z"/>
<path style="fill:#037d5d; stroke:none;" d="M332 886L333 887L332 886z"/>
<path style="fill:#d0fd88; stroke:none;" d="M332 887L333 888L332 887M334 888L335 889L334 888M336 889L337 890L336 889z"/>
<path style="fill:#037d5d; stroke:none;" d="M338 889L339 890L338 889M340 890L341 891L340 890z"/>
<path style="fill:#d0fd88; stroke:none;" d="M338 891L339 892L338 891z"/>
<path style="fill:#037d5d; stroke:none;" d="M343 891L345 893L343 891z"/>
<path style="fill:#d0fd88; stroke:none;" d="M343 892L344 893L343 892M345 893L346 894L345 893z"/>
<path style="fill:#037d5d; stroke:none;" d="M347 893L348 894L347 893z"/>
<path style="fill:#d0fd88; stroke:none;" d="M347 894L348 895L347 894M350 895L351 896L350 895M352 896L353 897L352 896M354 897L355 898L354 897M356.667 898.333L357.333 898.667L356.667 898.333M362 898L363 899L362 898M359 899L360 900L359 899M362 900L363 901L362 900M364 901L365 902L364 901M367 902L368 903L367 902M369.667 903.333L370.333 903.667L369.667 903.333M372.667 904.333L373.333 904.667L372.667 904.333M376 905L377 906L376 905M378.667 906.333L379.333 906.667L378.667 906.333M381 907L382 908L381 907M385 908L386 909L385 908M388 909L389 910L388 909M390.667 910.333L391.333 910.667L390.667 910.333M394.667 911.333L395.333 911.667L394.667 911.333M398.667 912.333L399.333 912.667L398.667 912.333M402 913L403 914L402 913M404 914L404 915L407 915L404 914M409.667 915.333L410.333 915.667L409.667 915.333M416 915L417 916L416 915M408 916L409 917L408 916M413 916L413 917L416 917L413 916M420 916L421 917L420 916M417.667 917.333L418.333 917.667L417.667 917.333M421 918L421 919L424 919L421 918M426 919L426 920L429 920L426 919M432 920L432 921L435 921L432 920M437 921L437 922L440 922L437 921M442 922L442 923L445 923L442 922M449 923L450 924L449 923M454 924L454 925L458 925L454 924M461 925L461 926L464 926L461 925M470 926L470 927L475 927L470 926M482 927L482 928L495 928L482 927M0 984L0 994L6 994L6 1004L7 1004L6 984L5 984L3 993L4 984L2 984L2 992L1 992L0 984z"/>
<path style="fill:#3cca6b; stroke:none;" d="M0 994L0 1014L6 1013L6 1024L7 1024L6 994L0 994z"/>
<path style="fill:#d0fd88; stroke:none;" d="M33 1004L35 1006L33 1004M6 1005L6 1011L7 1011L6 1005M19.6667 1008.33L20.3333 1008.67L19.6667 1008.33M6 1012L7 1013L6 1012z"/>
<path style="fill:#037d5d; stroke:none;" d="M5 1013L6 1014L5 1013z"/>
<path style="fill:#0a6039; stroke:none;" d="M0 1014L0 1024L6 1024L6 1014L0 1014z"/>
</svg>
